<?xml version="1.0" encoding="utf-8"?>
<!DOCTYPE svg PUBLIC "-//W3C//DTD SVG 1.1//EN" "http://www.w3.org/Graphics/SVG/1.1/DTD/svg11.dtd">
<svg version="1.1" id="Layer_1" xmlns="http://www.w3.org/2000/svg" xmlns:xlink="http://www.w3.org/1999/xlink" x="0px" y="0px"
	 viewBox="0 0 1280 1221" enable-background="new 0 0 1280 1221" xml:space="preserve">
<g id="_x23_000000ff">
	<path d="M0,0h1280v255.47c-0.17,0.59-0.52,1.78-0.6899,2.37c-5.6201,0.66-10.89,2.87-16.4701,3.69
		c-48.15,10.26-96.33,20.37-144.46,30.7c-5.65,78.26-11.66,156.48-17.39,234.74c-1.21,15.36-0.25,30.83-0.54,46.23
		c-0.71,0.03-2.12,0.1-2.83,0.13c-1.3,12.16-1.74,24.39-2.84,36.57c-6.3201,84.97-12.63,169.94-18.99,254.9
		c-0.23,6.21-0.36,13.21-5.0701,17.91c-5.64,6.45-14.65,7.5099-22.71,7.5c-235.36-0.01-470.72,0-706.08-0.01
		c-7.97-0.15-16.06,0.59-23.92-1.09c-5.15-1.47-10.4-4.29-13.06-9.15c-3.21-5.61-3.3-12.58-1.51-18.66
		c3.15-9.19,13.22-14.5,22.56-14.43c235.41,0.08,470.82-0.08,706.23,0.08c1.09-6.06,1.1-12.22,1.48-18.34
		c1.4-13.87,1.9301-27.8,3.3401-41.67c0.6-4.79,0.13-9.66,1.1399-14.39c-126.3799-0.28-252.77-0.04-379.15-0.12
		c-114.73,0-229.46,0-344.19,0c-8.11-42.7-15.54-85.52-23.45-128.25c-17.31-95.57-34.71-191.13-52.02-286.69
		c18.23-1.94,36.39-4.67,54.58-6.97c218.36-28.46,436.68-56.95,655.03-85.48c42.76-5.65,85.5701-10.96,128.29-16.85
		c0.13-4.7,0.3099-9.42,1.0699-14.06c1.9301-7.86,7.54-15.58,15.78-17.45c6.73-0.26,14.38-1.45,20.02,3.16
		c8.78,5.93,9.13,17.89,7.59,27.34c38.34-7.98,76.59-16.42,114.95-24.3c0.0601-61.39-0.0399-122.78,0.05-184.17
		c-397.83-0.03-795.66-0.05-1193.49,0.01C43.33,418.38,43.3,798.04,43.27,1177.7c393.2,0.04,786.4-0.0199,1179.6,0.02
		c-0.08,14.4301-0.02,28.85-0.03,43.28H43.74c-11.19-0.89-23.25-2.28-32.38-9.45c-7.89-7.9501-9.88-19.62-11.36-30.27V0
		 M1065.42,293.51c-48.1801,6.27-96.3701,12.57-144.55,18.92c-0.01,2.85-0.14,5.71,0.15,8.56c1.13,8.3-0.28,16.72,0.92,25.02
		c0.51,7.34-0.38,14.73,0.51,22.06c0.54,5.61-0.24,11.27,0.43,16.88c0.85,6.65-0.25,13.39,0.69,20.04
		c0.62,8.04-0.23,16.13,0.42,24.16c0.86,6.2-0.12,12.48,0.61,18.69c0.81,6.22-0.27,12.53,0.72,18.75
		c0.54,8.44-0.17,16.93,0.34,25.37c1,6.39-0.1,12.87,0.82,19.26c0.71,6.22-0.59,12.56,0.77,18.71c42.88,0.01,85.76-0.04,128.64,0.03
		c1.26-4.9,0.3199-10.04,1.24-15c3.8-48.65,7.23-97.31,10.96-145.96c0.52-11.94,2.17-23.81,2.51-35.75
		c1.54-13.5,1.59-27.13,3.42-40.59C1071.12,292.65,1068.24,292.93,1065.42,293.51 M854.94,320.99
		c-60.95,8-121.92,15.97-182.89,23.86c-6.39,1.04-12.9,1.31-19.21,2.85c2.11,25.75,3.21,51.54,5.2599,77.29
		c0.2401,14.02,2.29,27.95,2.4901,41.97c0.67,8,1.44,16.01,1.65,24.03c0.73,12.98,2.15,25.94,2.3,38.93
		c72.55,0.01,145.1,0.01,217.66,0c-0.01-7.33,0.22-14.67-0.57-21.98c0.36-9.67-0.91-19.28-0.55-28.95
		c-1.25-9.62-0.17-19.34-0.79-28.99c-0.97-6.33,0.1-12.75-0.74-19.09c-0.65-5.58,0.12-11.21-0.42-16.8
		c-1.06-8.68,0.29-17.47-0.8-26.14c-0.57-6.72,0.35-13.5-0.54-20.2c-0.6-5.61,0.21-11.28-0.47-16.88
		c-0.82-6.57,0.28-13.21-0.65-19.77c-0.52-4.22-0.2-8.48-0.15-12.71C869.28,318.88,862.15,320.28,854.94,320.99 M520.03,364.76
		c-24.56,3-49.05,6.76-73.66,9.38c3.76,43.25,7.1,86.56,10.74,129.83c0.3,8.66,2.05,17.24,1.85,25.93
		c53.74,0.0699,107.48,0.02,161.22,0.02c-1.05-13.17-1.49-26.36-2.62-39.53c-1.31-24.44-3.43-48.85-4.62-73.31
		c-0.53-8.39-1.6-16.76-1.59-25.18c-1.22-12.87-1.7-25.81-2.74-38.67C579.07,356.96,549.55,360.91,520.03,364.76 M388.09,381.98
		c-26.41,3.5-52.83,6.86-79.23,10.38c-5.9,0.41-11.68,2.06-17.63,1.92c8.09,45.24,16.51,90.42,24.71,135.65
		c32.89,0,65.79,0.01,98.68-0.01c-4.25-49.83-8.34-99.69-12.25-149.55C397.54,380.3,392.88,381.71,388.09,381.98 M323.84,573.22
		c9.48,51.8,18.77,103.63,28.48,155.38c26.16-0.11,52.33,0.01,78.5-0.06c-3.33-40.88-6.77-81.7599-10.03-122.65
		c-1.13-10.87-1.43-21.81-2.92-32.64C386.53,573.25,355.19,573.3,323.84,573.22 M462.7,573.24c0.72,8.92,1.79,17.82,2.18,26.76
		c0.51,7.3,1.71,14.55,1.73,21.89c1.7,14.34,2.22,28.77,3.83,43.12c0.03,8.7,1.79,17.28,1.91,25.98c0.72,7.71,1.37,15.43,2.09,23.14
		c0.23,4.83,0.33,9.69,1.29,14.46c52.38-0.05,104.75-0.04,157.13-0.01c-0.11-13.23-1.55-26.41-2.38-39.61
		c-0.1-10.35-1.76-20.65-1.76-31.0099c-2.28-28.22-3.52-56.4901-5.8799-84.7C569.46,573.24,516.08,573.28,462.7,573.24
		 M667.69,573.23c0.65,14.28,2.11,28.52,2.67,42.81c2,24.95,3.07,49.94,5.09,74.9c0.5,12.55,1.75,25.06,2.36,37.61
		c27.76,0.04,55.52-0.02,83.27,0.02c9.27,1.01,18.6,0.42,27.91,0.58c32.98-0.01,65.96,0,98.95-0.01c-0.06-4.01,0.21-8.03-0.28-12.02
		c-0.7-5.61,0.13-11.28-0.47-16.89c-0.96-7.03,0.23-14.15-0.83-21.17c-0.45-7.75,0.25-15.54-0.32-23.28
		c-0.86-6.13,0.05-12.33-0.58-18.47c-0.89-6.41,0.21-12.91-0.77-19.31c-0.54-7.69,0.13-15.42-0.3-23.11
		c-1-7.18-0.11-14.44-0.69-21.65C811.7,573.26,739.7,573.29,667.69,573.23 M928.24,573.19c0.43,5.98-0.26,12,0.48,17.97
		c0.57,5.28-0.12,10.61,0.34,15.9c0.9,6.59,0.34,13.26,0.48,19.89c-0.35,6.03,0.95,12,0.59,18.03c-0.35,5.36,0.83,10.67,0.6,16.03
		c-0.42,7.37,0.98,14.66,0.54,22.03c-0.42,9.68,0.89,19.27,0.58,28.94c0.63,5.66,0.71,11.36,0.51,17.06
		c36.32,0.27,72.65,0,108.97,0.13c3.5801-52.01,7.89-103.98,11.38-155.99C1011.22,573.32,969.73,573.29,928.24,573.19z"/>
	<path d="M979.5,904.88c21.63-2.89,44.09,1.08,63.4399,11.17c15.5701,8.32,29.2101,20.42,38.7101,35.36
		c11.33,17.2,16.7,38.08,15.84,58.6c-0.99,10.65-2.8199,21.36-6.97,31.28c-7.67,19.01-21.1901,35.6-38.26,46.95
		c-12.48,8.04-26.5,13.88-41.2,16.1901c-8.92,1.95-18.09,0.8099-27.13,1.12c-16.47-1.77-32.76-6.8501-46.78-15.8201
		c-15.9901-10.14-29.33-24.61-37.64-41.66c-10.16-20.45-12.39-44.45-7.2-66.59c5.6-22.35,19.01-42.75,37.63-56.38
		C944.36,914.23,961.59,907.16,979.5,904.88z"/>
	<path d="M449.64,950.97c26.91-4.1299,55.65,6.25,73.27,27.07c14.6201,16.45,21.3,39.44,18,61.15c-3.02,21.4401-15.92,41-33.9,52.92
		c-13.47,8.92-29.73,14.3-45.98,13.4301c-12.27,0.6599-24.5-2.7001-35.48-8.03c-23.2-11.08-40.47-34.1901-43.52-59.85
		c-1.19-11.91-0.35-24.22,3.96-35.48C395.59,975.06,421.31,954.98,449.64,950.97z"/>
</g>
</svg>
